<svg xmlns="http://www.w3.org/2000/svg" viewBox="0 0 595.28 595.28" height="595" width="595">
  <path style="fill: #ffffff;" d="M567.78,34.86h-115V17.55a17.55,17.55,0,1,0-35.1,0V34.86H315.19V17.55a17.55,17.55,0,1,0-35.1,0V34.86H181.93V17.55a17.55,17.55,0,1,0-35.09,0V34.86H27.5A17.54,17.54,0,0,0,10,52.4V448.9A17.54,17.54,0,0,0,27.5,466.44H135.2c17.26,73.74,83.52,128.84,162.44,128.84s145.18-55.1,162.43-128.84h107.7a17.54,17.54,0,0,0,17.55-17.54V52.4a17.54,17.54,0,0,0-17.54-17.54ZM146.84,70V85.81a17.55,17.55,0,1,0,35.09,0V70h98.16V85.81a17.55,17.55,0,1,0,35.1,0V70H417.7V85.81a17.55,17.55,0,0,0,35.1,0V70h97.43v71.76H45.05V70Zm150.8,490.23c-72.65,0-131.76-59.1-131.76-131.76S225,296.66,297.64,296.66,429.4,355.77,429.4,428.42,370.29,560.18,297.64,560.18ZM464.42,431.35c0-1,.08-2,.08-2.93,0-92-74.86-166.85-166.86-166.85S130.78,336.42,130.78,428.42c0,1,.06,1.95.07,2.93H45.05V176.81H550.23V431.35Z"/>
  <path style="fill: #ffffff;" d="M315.19,432.85V348a17.55,17.55,0,0,0-35.1,0v92.16a17.56,17.56,0,0,0,5.14,12.41l40.33,40.33a17.55,17.55,0,1,0,24.82-24.81l-35.19-35.2Z"/>
</svg>