<svg xmlns="http://www.w3.org/2000/svg" viewBox="0 0 595.28 516.21" height="595" width="595">
  <path style="fill: #ffffff;" d="M583.4,133.07,462.23,11.9a40.61,40.61,0,0,0-57.44,0L376.31,40.37a40.36,40.36,0,0,0-9.46,15L233.62,31.54h0a111.18,111.18,0,0,0-130.48,87L97,149a62.28,62.28,0,1,0,122.1,24.62L222.82,155l59.75,5.22,156,156,28.28,28.28a14.69,14.69,0,0,1-20.77,20.77l-75.75-75.75a13.51,13.51,0,1,0-19.1,19.11L427,384.37a14.68,14.68,0,0,1-20.77,20.76l-75.75-75.74a13.51,13.51,0,0,0-19.11,19.1l75.75,75.75A14.69,14.69,0,0,1,366.35,445L290.6,369.26a13.51,13.51,0,1,0-19.1,19.11l75.75,75.75a14.69,14.69,0,0,1-20.77,20.77l-268-268L23.07,181.48A13.51,13.51,0,0,0,4,200.59L39.35,236,77.87,274.5,56.64,295.73a36.82,36.82,0,0,0,0,52.06l6.93,6.93a36.58,36.58,0,0,0,22.35,10.6,36.51,36.51,0,0,0,10.59,22.34l6.93,6.93a36.62,36.62,0,0,0,22.35,10.57,36.55,36.55,0,0,0,10.6,22.38l6.93,6.93a36.52,36.52,0,0,0,22.35,10.6,36.52,36.52,0,0,0,10.6,22.35l6.93,6.93a36.87,36.87,0,0,0,52.06,0l21.23-21.24L307.37,504a41.65,41.65,0,0,0,71.11-27.74,41.48,41.48,0,0,0,39.86-39.89,41.46,41.46,0,0,0,39.88-39.88A41.64,41.64,0,0,0,486,325.38l-18.72-18.72,68.51-68.51,47.64-47.64a40.66,40.66,0,0,0,0-57.44ZM75.74,328.68a9.81,9.81,0,0,1,0-13.84l19.92-19.92,20.77,20.78L96.51,335.61a9.81,9.81,0,0,1-13.84,0Zm39.88,39.88a9.79,9.79,0,0,1,0-13.84l19.91-19.91,20.77,20.77-19.91,19.91a9.81,9.81,0,0,1-13.84,0Zm39.88,39.87a9.78,9.78,0,0,1,0-13.84l19.91-19.91,20.77,20.77-19.91,19.91a9.79,9.79,0,0,1-13.84,0l-6.93-6.93Zm60.65,46.81a9.81,9.81,0,0,1-13.85,0l-6.93-6.93a9.81,9.81,0,0,1,0-13.84l19.92-19.91,20.77,20.77-19.91,19.91Zm232-167.69-150-150a13.49,13.49,0,0,0-8.37-3.91L213.14,127c-.4,0-.8,0-1.19,0a13.51,13.51,0,0,0-13.23,10.84l-6.15,30.48a35.26,35.26,0,0,1-69.12-13.94l6.15-30.48a84.1,84.1,0,0,1,99-65.76l.28.06,131.3,23.5,16.16,16.17L507.1,228.6ZM564.29,171.4l-38.08,38.09L395.42,78.7a13.59,13.59,0,0,1,0-19.22L423.9,31a13.59,13.59,0,0,1,19.22,0L564.29,152.17a13.58,13.58,0,0,1,0,19.23Z"/>
  <path style="fill: #ffffff;" d="M531.59,153.64a13.51,13.51,0,1,1-13.51,13.51A13.51,13.51,0,0,1,531.59,153.64Z"/>
</svg>