<svg class="logo-svg" xmlns="http://www.w3.org/2000/svg" viewBox="0 0 100.24 100.49" height="100" width="100">
  <defs>
    <style>
      .cls-1,.cls-2{fill:#be311c;}.cls-1{fill-rule:evenodd;}
    </style>
  </defs>
  <title>Artboard 1</title>
  <polygon class="cls-1" points="40.37 53.55 40.37 0 48.33 0 48.33 53.55 40.37 53.55 40.37 53.55"/>
  <polygon class="cls-1" points="0 45.59 48.33 45.59 48.33 53.55 0 53.55 0 45.59 0 45.59"/>
  <polygon class="cls-1" points="0 41.9 50.25 6.71 54.81 13.23 0 51.61 0 41.9 0 41.9"/>
  <polygon class="cls-1" points="100.24 45.59 53.61 45.59 53.61 53.55 100.24 53.55 100.24 45.59 100.24 45.59"/>
  <polygon class="cls-1" points="100.24 41.9 49.99 6.71 45.42 13.23 100.24 51.61 100.24 41.9 100.24 41.9"/>
  <polygon class="cls-1" points="53.61 53.55 53.61 39.14 61.57 39.14 61.57 53.55 53.61 53.55 53.61 53.55"/>
  <polygon class="cls-1" points="53.61 31.52 68.02 31.52 68.02 39.48 53.61 39.48 53.61 31.52 53.61 31.52"/>
  <path class="cls-2" d="M14.26,86.09H8.54v14.4H.32V64.75H8.54V79.2h5.92l9.4-14.45h8.73L20.9,82l12,18.49H23.55l-9.29-14.4Zm39.31,15a20.45,20.45,0,0,1-9.88-2.38,17.66,17.66,0,0,1-6.94-6.58,19.18,19.18,0,0,1,0-19,17.68,17.68,0,0,1,6.94-6.59,20.64,20.64,0,0,1,9.93-2.37A20.81,20.81,0,0,1,62,65.77a16.84,16.84,0,0,1,6.3,4.7L63,75.37a11.41,11.41,0,0,0-9-4.19,11.92,11.92,0,0,0-5.92,1.46,10.3,10.3,0,0,0-4.06,4.06,12.73,12.73,0,0,0,0,11.84,10.3,10.3,0,0,0,4.06,4.06A11.91,11.91,0,0,0,54,94.05a11.35,11.35,0,0,0,9-4.23l5.31,4.9A16.48,16.48,0,0,1,62,99.46a21,21,0,0,1-8.42,1.64Zm47.12-29.61H89.25v29H81.08v-29H69.7V64.75h31v6.74Z"/>
</svg>