<svg xmlns="http://www.w3.org/2000/svg" viewBox="0 0 595.28 595.28" height="595" width="595">
  <path style="fill: #ffffff;" d="M570,67.79,428.54,1.49a15.78,15.78,0,0,0-21,7.59L298.27,242.28l-.63,0-.63,0L187.72,9.08a15.77,15.77,0,0,0-21-7.59L25.28,67.79a15.77,15.77,0,0,0-7.59,21l113.9,243a38.78,38.78,0,0,0-2.3,68.91,7.15,7.15,0,0,1,0,12.5,38.69,38.69,0,0,0,19.43,72.51,7,7,0,0,1,6.31,3.58,6.9,6.9,0,0,1-.06,7.25,38.69,38.69,0,0,0,53.09,53.08,7.15,7.15,0,0,1,10.82,6.25,38.15,38.15,0,0,0,28.67,38,39.93,39.93,0,0,0,10.35,1.38,38.09,38.09,0,0,0,33.49-20,7.14,7.14,0,0,1,12.49,0,38.69,38.69,0,0,0,72.51-19.43,7.15,7.15,0,0,1,10.83-6.25,38.69,38.69,0,0,0,53.08-53.08,6.92,6.92,0,0,1-.06-7.26,7.08,7.08,0,0,1,6.31-3.57A38.69,38.69,0,0,0,466,413.22a7.15,7.15,0,0,1,0-12.5,38.79,38.79,0,0,0-2.3-68.93l113.9-243A15.76,15.76,0,0,0,570,67.79ZM454.1,365.05a6.68,6.68,0,0,1-3.44,8.1,38.7,38.7,0,0,0,0,67.65,7.15,7.15,0,0,1-3.41,13.4h-.18a38.69,38.69,0,0,0-33.82,58.58,7.15,7.15,0,0,1-9.81,9.81,38.69,38.69,0,0,0-58.58,33.82,7.15,7.15,0,0,1-13.4,3.59,38.7,38.7,0,0,0-67.65,0,7.15,7.15,0,0,1-13.4-3.59,38.69,38.69,0,0,0-58.58-33.82,7.15,7.15,0,0,1-9.81-9.81A38.69,38.69,0,0,0,148.2,454.2a7.15,7.15,0,0,1-3.59-13.4,38.7,38.7,0,0,0,0-67.65,7.15,7.15,0,0,1,3.59-13.4A38.69,38.69,0,0,0,182,301.16a7.15,7.15,0,0,1,9.81-9.8,38.69,38.69,0,0,0,58.58-33.83,7.15,7.15,0,0,1,13.4-3.59,38.69,38.69,0,0,0,67.65,0,7.15,7.15,0,0,1,13.4,3.59,38.69,38.69,0,0,0,58.58,33.83,7.15,7.15,0,0,1,9.81,9.8h0a38.69,38.69,0,0,0,33.82,58.58,6.8,6.8,0,0,1,7,5.3ZM165.85,36.75l85.52,182.48c-1.27.22-2.54.47-3.82.82a38.15,38.15,0,0,0-28.67,38,7.15,7.15,0,0,1-10.82,6.25,38.86,38.86,0,0,0-58.67,31.15L52.94,89.66,165.85,36.75Zm280,258.71a38.86,38.86,0,0,0-58.67-31.15,7.15,7.15,0,0,1-10.82-6.25,38.17,38.17,0,0,0-28.67-38c-1.28-.34-2.55-.6-3.82-.81L429.43,36.75,542.34,89.66Z"/>
</svg>