<svg class="svg-icon" xmlns="http://www.w3.org/2000/svg" viewBox="0 0 595.28 841.89" height="842" width="595">
  <path d="M121.3,519C180,589.19,250.69,644.45,331.36,683.55c30.72,14.56,71.79,31.83,117.55,34.79,2.84.12,5.55.25,8.39.25,30.71,0,55.38-10.61,75.49-32.45a2.71,2.71,0,0,0,.49-.61c7.16-8.64,15.3-16.41,23.81-24.67,5.8-5.55,11.72-11.35,17.39-17.27,26.27-27.38,26.27-62.17-.24-88.69L500.1,480.77c-12.58-13.08-27.63-20-43.42-20s-31,6.9-43.91,19.86L368.61,524.8c-4.07-2.34-8.26-4.44-12.21-6.41a153.93,153.93,0,0,1-13.57-7.4c-40.21-25.53-76.72-58.84-111.63-101.64-17.64-22.33-29.48-41.07-37.74-60.19,11.59-10.49,22.45-21.47,32.93-32.2,3.7-3.82,7.53-7.65,11.35-11.47,13.32-13.32,20.48-28.74,20.48-44.4s-7-31.09-20.48-44.41L201,179.92c-4.32-4.32-8.39-8.51-12.58-12.83-8.14-8.38-16.65-17-25-24.79-12.7-12.46-27.63-19-43.42-19S89.23,129.84,76,142.42L29.9,188.56A94.72,94.72,0,0,0,1.65,249.24c-2.34,29.48,3.09,60.81,17.15,98.68C40.38,406.51,73,460.91,121.3,519ZM31.75,251.83A65.24,65.24,0,0,1,51.36,209.9L97.25,164c7.15-6.91,15-10.48,22.69-10.48s15.17,3.57,22.21,10.73c8.26,7.64,16,15.66,24.42,24.17,4.19,4.32,8.51,8.64,12.83,13.08l36.75,36.76c7.65,7.64,11.6,15.41,11.6,23.06s-3.95,15.42-11.6,23.07c-3.82,3.82-7.64,7.77-11.47,11.59-11.47,11.6-22.2,22.58-34,33.06l-.62.62c-10.24,10.24-8.63,20-6.17,27.38.13.37.25.62.37,1,9.5,22.82,22.7,44.53,43.3,70.43,37,45.64,76,81,118.91,108.3a176.54,176.54,0,0,0,16.28,8.88,153.93,153.93,0,0,1,13.57,7.4c.49.25.86.49,1.35.74a25.78,25.78,0,0,0,12,3.08c9.87,0,16.28-6.29,18.38-8.38l46.13-46.14c7.16-7.15,14.93-11,22.57-11,9.38,0,17,5.8,21.84,11l74.38,74.26c14.8,14.8,14.67,30.84-.37,46.5-5.18,5.55-10.61,10.86-16.41,16.41-8.63,8.39-17.64,17-25.78,26.76-14.18,15.3-31.08,22.46-52.92,22.46-2.09,0-4.31-.13-6.41-.25-40.46-2.59-78.08-18.38-106.33-31.83C268,619.54,200.61,566.87,144.74,500c-46-55.38-77-106.94-97.45-162.2C34.59,303.89,29.77,276.63,31.75,251.83Z"/>
</svg>