<svg class="svg-icon" xmlns="http://www.w3.org/2000/svg" viewBox="0 0 595.28 841.89" height="842" width="595">
  <path d="M296.66,455.65A159.36,159.36,0,0,0,456,296.32c0-88-71.36-158.84-159.33-158.84S137.33,208.83,137.33,296.32,208.69,455.65,296.66,455.65Zm0-276.63C361.17,179,414,231.8,414,296.32s-52.79,117.29-117.3,117.29S179.37,360.83,179.37,296.32,232.15,179,296.66,179Z"/>
  <path d="M21,704.41H574.26a20.86,20.86,0,0,0,21-21c0-110-89.44-199.9-199.89-199.9H199.89C89.93,483.5,0,572.94,0,683.4A20.86,20.86,0,0,0,21,704.41ZM199.89,525.53h195.5A157.76,157.76,0,0,1,551.78,662.38H43.5C53.76,585.65,119.74,525.53,199.89,525.53Z"/>
</svg>